PathFileType	4	(X/Y/Z)	Walk1_0-155.trc
DataRate	CameraRate	NumFrames	NumMarkers	Units	OrigDataRate	OrigDataStartFrame	OrigNumFrames
30	30	6	22	m	30	19	155
Frame#	Time	Hip			RHip			RKnee			RAnkle			RBigToe			RSmallToe			RHeel			LHip			LKnee			LAnkle			LBigToe			LSmallToe			LHeel			Neck			Head			Nose			RShoulder			RElbow			RWrist			LShoulder			LElbow			LWrist		
		X1	Y1	Z1	X2	Y2	Z2	X3	Y3	Z3	X4	Y4	Z4	X5	Y5	Z5	X6	Y6	Z6	X7	Y7	Z7	X8	Y8	Z8	X9	Y9	Z9	X10	Y10	Z10	X11	Y11	Z11	X12	Y12	Z12	X13	Y13	Z13	X14	Y14	Z14	X15	Y15	Z15	X16	Y16	Z16	X17	Y17	Z17	X18	Y18	Z18	X19	Y19	Z19	X20	Y20	Z20	X21	Y21	Z21	X22	Y22	Z22
20	0.6666666666666666	-2.503414559619258	0.8465885647181197	0.3209575793909636	-2.4559563892245473	0.8319517272416307	0.42207670817503706	-2.3070253008906816	0.5252393182007067	0.45733863606578606	-2.467244088805668	0.1399430326605073	0.4800334842678433	-2.3313214317455273	0.013169396773478441	0.508606262879412	-2.358954432523135	0.02095035273046156	0.5744923009480735	-2.5431043467184424	0.06852229742389826	0.4538201123835115	-2.520317677463361	0.811267568156288	0.2306525695288874	-2.500845559972095	0.4550042376415034	0.23920670626541582	-2.5668201412658482	0.08664575024103674	0.2701841711551075	-2.368802356953957	-0.007610031285738527	0.2764663098899874	-2.4135724478699125	-0.011630619853291856	0.2105437973204084	-2.622688397671878	0.007711195838477468	0.28677180257104	-2.487646694593804	1.522484884253436	0.2782336097511382	-2.424363245508932	1.7849413560653267	0.292643089196582	-2.3443203154403007	1.652156939707798	0.27884243485968685	-2.52358333700225	1.4163710203193252	0.46312033031153277	-2.4880531720013055	1.096296768000929	0.5522791236958532	-2.412339865726711	0.8641633691320985	0.5649572509596963	-2.547690458056008	1.418522721160617	0.05954017465601047	-2.503979838392217	1.092363562157524	0.06485471266104702	-2.4565778528577793	0.8474298613072301	0.07333005348184454
21	0.7	-2.493395884341338	0.8491113059546929	0.3195774568576984	-2.441549401092776	0.8361111652302863	0.41963755756073184	-2.2860147646227063	0.5325055138745258	0.45211793491341384	-2.4334282730485133	0.14403136826805507	0.4741237536945218	-2.290883736627343	0.020967090753464878	0.49884833221517005	-2.3181310068487697	0.025871179005048334	0.5648693358522877	-2.5088610698975766	0.07190383397904075	0.4491862005253851	-2.514175372876664	0.8130404102958482	0.22782355851523067	-2.4956361537256586	0.45586409553138413	0.23844543311676003	-2.5664231519051195	0.08686880156461253	0.2695017012568183	-2.370020724440614	-0.009658886684289872	0.27689982356122606	-2.415637079656142	-0.013034043396763463	0.2122453426424325	-2.621495631513891	0.008288138228768518	0.2850882079639654	-2.478038644408729	1.5230907813522752	0.2765740445069699	-2.413231016193897	1.7851905285932346	0.2906321144182594	-2.333270261222653	1.6520743234517168	0.2789290729398305	-2.515249228564208	1.4177675620322798	0.4614416383341712	-2.4769879541473934	1.0953166625687176	0.5517302818172135	-2.4103473854928903	0.8637493997135304	0.5643897372313185	-2.536827677285201	1.4202275943255893	0.05707871502703943	-2.4944017198027213	1.0930321875961346	0.06238584421962499	-2.4470483098280065	0.848346362333145	0.07001977570913488
22	0.7333333333333333	-2.4830776631994755	0.8512521198796962	0.3186926793506419	-2.42807966184949	0.8394525266070022	0.41756009608187683	-2.2700280987348647	0.5374289438483384	0.446207174295532	-2.395335052245469	0.14390825453962414	0.46876646317939547	-2.2416845978857727	0.02985580423083174	0.4905759137473437	-2.2697152999017587	0.031119596259281474	0.5557937609343776	-2.4654432877776262	0.0700356304718448	0.44542147412386934	-2.5069976542565153	0.8144876811883772	0.22594182314030684	-2.4905703716181753	0.4559152115840739	0.23835276233382297	-2.5658472553001004	0.08658265071220517	0.2688007345137513	-2.371664878723332	-0.011603866899846889	0.27793994457589694	-2.417716486503686	-0.01418473201621393	0.2144336182509561	-2.6209052783720566	0.008092295502406215	0.28337426768283336	-2.4674375711446164	1.5237925753792463	0.27539617835716496	-2.402456105036856	1.784728780339763	0.2886572287570767	-2.3214926536112723	1.652608486781685	0.28079571692696703	-2.505976756117236	1.418936597664642	0.45988847717826	-2.464792098289774	1.094201558814961	0.5515711310006706	-2.408614190842222	0.8623289687755339	0.5642009572992563	-2.524989233681573	1.4220626411631418	0.05594888252298276	-2.4837595228049434	1.094028888459391	0.061173223240686074	-2.435382433850004	0.8494640346490856	0.06851365252014024
23	0.7666666666666667	-2.472510548834395	0.8526185679795606	0.3182576030607895	-2.4154581256345877	0.8414874349798261	0.4161381197909708	-2.2583656030868773	0.5392586559376653	0.4399393759336131	-2.353346844162777	0.1399279465306064	0.46453908626144047	-2.185255552271862	0.03907843481871933	0.4840429204182655	-2.2157095016202404	0.03720536540569234	0.547693559464256	-2.414764890435929	0.06304211345317777	0.4418146454925393	-2.4985848069434216	0.8152533089248968	0.22525938087943032	-2.4859650000488327	0.4547496181847986	0.2386325221968878	-2.565221282613823	0.08549965736931385	0.26831455664991	-2.373061441541695	-0.013382525609351409	0.2791547892286665	-2.419422697225964	-0.015278396183779304	0.21666191651856664	-2.6217560028108426	0.006968749771909014	0.2822982267331044	-2.4556825819805197	1.524409597290158	0.27468319920160794	-2.391878631853186	1.783709266953508	0.28677820997967945	-2.30889475140431	1.6533532962137643	0.2835813569871217	-2.4956697886680153	1.4197004282760308	0.4586549083487549	-2.4534535158932997	1.093194852126992	0.5511387481304351	-2.406755960248613	0.8599012459121707	0.5645400813384428	-2.5120992550267944	1.4236598103702298	0.05604853113396255	-2.471849545590753	1.095100979577003	0.060969286897459805	-2.4214795626503087	0.8504213923357601	0.06886803069598552
24	0.8	-2.4615838066414	0.8529195628775944	0.3182307105148253	-2.4032168574345283	0.8418690773040824	0.4154831208210736	-2.2495232975022112	0.5376061505912794	0.43371110529103796	-2.308357110597936	0.1336885297058749	0.46169096016366656	-2.1244522147415577	0.04842674647072185	0.4785804833118304	-2.158748922036626	0.04442500741120673	0.5405525413577904	-2.3599063621007703	0.05226883583623733	0.4380146772181085	-2.4888731944623057	0.8150585804316952	0.2258089337258321	-2.482062968621404	0.4521120529635096	0.23906491615160702	-2.5647188147766737	0.08344282660515755	0.2684666120289614	-2.3735822505137505	-0.015038170377902626	0.28018657811677883	-2.4205070515097575	-0.016630114723471607	0.2186033242352071	-2.6243269903931066	0.005026347840850018	0.2825539485806718	-2.4426042667599095	1.5247928477146975	0.2745756165492895	-2.380860237272084	1.7825343350956004	0.28527306255633844	-2.2953405209776494	1.6538963386514296	0.2865000010459239	-2.4841850281056796	1.4198965047604624	0.45807974186771416	-2.44452245312522	1.092450778304186	0.5498708239765687	-2.4044143220790115	0.8567532110793397	0.565558205665206	-2.4981056599524374	1.4247316610213494	0.0570382842545866	-2.4584130637531327	1.0958816483549096	0.061437660304013444	-2.405281794131872	0.8509453865503526	0.07089886028953277
25	0.8333333333333334	-2.4500765000171745	0.8520278298962747	0.31859120209622344	-2.39095853561561	0.8405316790493363	0.4155107725270682	-2.241699578166063	0.5327392948986472	0.42790256735687926	-2.2620465696980094	0.12746097128424957	0.4600663978781143	-2.063081254540256	0.05832258498849389	0.4734684306969676	-2.101535738498148	0.0530103748278875	0.5343036530512311	-2.3042688716743687	0.04016068801096098	0.4343564846719358	-2.477947497612705	0.8138655876740515	0.22729006339299604	-2.478900643796424	0.4481180777299523	0.23956763800468214	-2.5646612292742503	0.0805067452697433	0.26962578178942753	-2.373021197630183	-0.01663120833230855	0.2810707320235285	-2.421154120660596	-0.018423878336268976	0.22029165548269053	-2.6281597506293743	0.002687697148789898	0.2842670903262046	-2.428110894804148	1.5247993069220045	0.27524118503518596	-2.3685566816333266	1.7815584516321097	0.284720223743169	-2.280755101024962	1.6539436796892488	0.2892248138033369	-2.471353848454832	1.4194495676177448	0.45842226611180303	-2.4381329634882274	1.0919198086021338	0.5476876532648055	-2.401387701037675	0.8532949089436458	0.5673290949030724	-2.483048125972097	1.425152466943062	0.058616223944889884	-2.4432373550975557	1.0960412221515379	0.062378132975927834	-2.3868837296373258	0.8509033284650033	0.07416499814354442
